<?xml version="1.0" encoding="UTF-8"?>
<!DOCTYPE svg PUBLIC "-//W3C//DTD SVG 1.1//EN" "http://www.w3.org/Graphics/SVG/1.1/DTD/svg11.dtd">
<svg xmlns="http://www.w3.org/2000/svg" version="1.1" width="600px" height="600px" style="shape-rendering:geometricPrecision; text-rendering:geometricPrecision; image-rendering:optimizeQuality; fill-rule:evenodd; clip-rule:evenodd" xmlns:xlink="http://www.w3.org/1999/xlink">
<g><path style="opacity:1" fill="#1b2427" d="M 297.5,188.5 C 294.305,189.236 290.971,189.903 287.5,190.5C 285.831,189.11 284.164,188.777 282.5,189.5C 281.513,192.768 281.18,196.102 281.5,199.5C 283.5,199.5 285.5,199.5 287.5,199.5C 287.5,203.5 287.5,207.5 287.5,211.5C 288.833,211.5 290.167,211.5 291.5,211.5C 291.5,212.833 291.5,214.167 291.5,215.5C 290.167,215.5 288.833,215.5 287.5,215.5C 287.5,216.833 287.5,218.167 287.5,219.5C 289.5,219.5 291.5,219.5 293.5,219.5C 293.5,220.833 293.5,222.167 293.5,223.5C 296.833,223.5 300.167,223.5 303.5,223.5C 305.121,222.074 305.121,224.241 303.5,230C 301.854,232.229 301.521,234.563 302.5,237C 301.921,238.914 300.921,240.581 299.5,242C 300.997,244.658 301.997,247.491 302.5,250.5C 302.957,251.298 303.624,251.631 304.5,251.5C 305.403,255.757 303.736,258.257 299.5,259C 295.167,259.667 290.833,259.667 286.5,259C 285.584,258.626 284.75,258.126 284,257.5C 282.4,242.932 281.4,228.265 281,213.5C 266.293,206.777 257.293,195.444 254,179.5C 252.899,159.097 252.566,138.764 253,118.5C 254.8,108.633 259.8,106.299 268,111.5C 268.667,112.833 269.333,114.167 270,115.5C 270.333,134.833 270.667,154.167 271,173.5C 276.088,185.127 284.922,190.127 297.5,188.5 Z"/></g>
<g><path style="opacity:1" fill="#152126" d="M 289.5,109.5 C 295.345,108.668 299.179,111.001 301,116.5C 301.667,132.833 301.667,149.167 301,165.5C 300.167,170.441 297.167,173.108 292,173.5C 288.32,172.487 285.987,170.153 285,166.5C 284.333,149.167 284.333,131.833 285,114.5C 286.059,112.341 287.559,110.674 289.5,109.5 Z"/></g>
<g><path style="opacity:1" fill="#172328" d="M 330.5,113.5 C 331.966,114.347 332.8,115.68 333,117.5C 333.31,134.168 333.143,150.835 332.5,167.5C 330.766,165.678 329.766,163.345 329.5,160.5C 328.311,159.571 326.978,159.238 325.5,159.5C 325.5,158.167 325.5,156.833 325.5,155.5C 324.167,155.5 322.833,155.5 321.5,155.5C 321.662,157.527 321.495,159.527 321,161.5C 320.259,162.641 319.425,162.641 318.5,161.5C 317.828,162.949 317.161,164.282 316.5,165.5C 316.333,151.163 316.5,136.829 317,122.5C 318.067,123.191 319.234,123.691 320.5,124C 320.304,129.286 319.971,134.62 319.5,140C 319.565,142.591 320.065,145.091 321,147.5C 323.022,142.367 323.855,137.033 323.5,131.5C 325.5,131.5 327.5,131.5 329.5,131.5C 329.286,129.856 329.62,128.356 330.5,127C 329.257,125.13 328.59,122.964 328.5,120.5C 328.667,118.5 328.833,116.5 329,114.5C 329.383,113.944 329.883,113.611 330.5,113.5 Z"/></g>
<g><path style="opacity:1" fill="#172829" d="M 224.5,139.5 C 235.237,141.802 237.904,147.635 232.5,157C 212.195,167.635 194.528,181.635 179.5,199C 172.764,200.769 167.098,199.102 162.5,194C 164.193,190.784 166.027,187.617 168,184.5C 180.039,171.072 193.205,158.906 207.5,148C 212.98,144.593 218.647,141.76 224.5,139.5 Z"/></g>
<g><path style="opacity:1" fill="#1d2426" d="M 354.5,139.5 C 359.412,139.063 364.078,139.896 368.5,142C 391.221,155.726 410.388,173.226 426,194.5C 426.39,199.599 423.89,201.933 418.5,201.5C 413.616,201.157 408.95,199.99 404.5,198C 388.106,181.931 370.273,167.764 351,155.5C 348.276,149.266 349.442,143.932 354.5,139.5 Z"/></g>
<g><path style="opacity:1" fill="#182325" d="M 330.5,113.5 C 329.883,113.611 329.383,113.944 329,114.5C 328.833,116.5 328.667,118.5 328.5,120.5C 328.59,122.964 329.257,125.13 330.5,127C 329.62,128.356 329.286,129.856 329.5,131.5C 327.5,131.5 325.5,131.5 323.5,131.5C 323.855,137.033 323.022,142.367 321,147.5C 320.065,145.091 319.565,142.591 319.5,140C 319.971,134.62 320.304,129.286 320.5,124C 319.234,123.691 318.067,123.191 317,122.5C 316.5,136.829 316.333,151.163 316.5,165.5C 316.622,170.232 316.122,174.898 315,179.5C 311.372,185.09 309.538,191.257 309.5,198C 308.289,200.257 306.956,202.424 305.5,204.5C 306.838,206.275 308.171,207.941 309.5,209.5C 307.08,211.92 305.913,214.92 306,218.5C 305.62,229.511 305.12,240.511 304.5,251.5C 303.624,251.631 302.957,251.298 302.5,250.5C 301.997,247.491 300.997,244.658 299.5,242C 300.921,240.581 301.921,238.914 302.5,237C 301.521,234.563 301.854,232.229 303.5,230C 305.121,224.241 305.121,222.074 303.5,223.5C 300.167,223.5 296.833,223.5 293.5,223.5C 293.5,222.167 293.5,220.833 293.5,219.5C 291.5,219.5 289.5,219.5 287.5,219.5C 287.5,218.167 287.5,216.833 287.5,215.5C 288.833,215.5 290.167,215.5 291.5,215.5C 291.5,214.167 291.5,212.833 291.5,211.5C 290.167,211.5 288.833,211.5 287.5,211.5C 287.5,207.5 287.5,203.5 287.5,199.5C 285.5,199.5 283.5,199.5 281.5,199.5C 281.18,196.102 281.513,192.768 282.5,189.5C 284.164,188.777 285.831,189.11 287.5,190.5C 290.971,189.903 294.305,189.236 297.5,188.5C 302.749,188.125 306.915,185.792 310,181.5C 312.087,178.327 313.921,174.994 315.5,171.5C 314.846,162.378 314.513,153.212 314.5,144C 314.371,134.097 314.871,124.263 316,114.5C 318.913,109.311 323.08,108.144 328.5,111C 329.381,111.708 330.047,112.542 330.5,113.5 Z"/></g>
<g><path style="opacity:1" fill="#12262b" d="M 332.5,167.5 C 332.663,169.857 332.497,172.19 332,174.5C 329.119,181.975 326.952,189.642 325.5,197.5C 321.512,199.966 317.845,203.132 314.5,207C 312.922,208.094 311.255,208.928 309.5,209.5C 308.171,207.941 306.838,206.275 305.5,204.5C 306.956,202.424 308.289,200.257 309.5,198C 309.538,191.257 311.372,185.09 315,179.5C 316.122,174.898 316.622,170.232 316.5,165.5C 317.161,164.282 317.828,162.949 318.5,161.5C 319.425,162.641 320.259,162.641 321,161.5C 321.495,159.527 321.662,157.527 321.5,155.5C 322.833,155.5 324.167,155.5 325.5,155.5C 325.5,156.833 325.5,158.167 325.5,159.5C 326.978,159.238 328.311,159.571 329.5,160.5C 329.766,163.345 330.766,165.678 332.5,167.5 Z"/></g>
<g><path style="opacity:1" fill="#1b2528" d="M 386.5,211.5 C 396.316,211.823 403.15,216.49 407,225.5C 407.401,268.847 407.735,312.18 408,355.5C 406.774,362.394 402.94,367.227 396.5,370C 384.347,372.342 376.847,367.509 374,355.5C 373.078,312.807 372.745,270.14 373,227.5C 374.161,219.184 378.661,213.851 386.5,211.5 Z"/></g>
<g><path style="opacity:1" fill="#1b2326" d="M 213.5,223.5 C 212.778,223.918 212.278,224.584 212,225.5C 211.111,222.611 209.778,219.945 208,217.5C 206.903,220.265 204.903,221.931 202,222.5C 201.517,223.448 201.351,224.448 201.5,225.5C 199.5,225.5 197.5,225.5 195.5,225.5C 195.5,227.5 195.5,229.5 195.5,231.5C 197.5,231.5 199.5,231.5 201.5,231.5C 201.5,232.833 201.5,234.167 201.5,235.5C 200.167,235.5 198.833,235.5 197.5,235.5C 197.5,246.167 197.5,256.833 197.5,267.5C 195.5,267.5 193.5,267.5 191.5,267.5C 191.606,278.321 191.606,288.987 191.5,299.5C 191.477,301.067 191.977,302.4 193,303.5C 193.497,300.854 193.664,298.187 193.5,295.5C 194.833,295.5 196.167,295.5 197.5,295.5C 197.5,300.833 197.5,306.167 197.5,311.5C 198.833,311.5 200.167,311.5 201.5,311.5C 201.5,314.167 201.5,316.833 201.5,319.5C 200.167,319.5 198.833,319.5 197.5,319.5C 197.5,327.5 197.5,335.5 197.5,343.5C 198.833,343.5 200.167,343.5 201.5,343.5C 201.5,350.167 201.5,356.833 201.5,363.5C 200.167,363.5 198.833,363.5 197.5,363.5C 197.5,364.833 197.5,366.167 197.5,367.5C 195.226,367.285 193.059,366.618 191,365.5C 190.167,365.833 189.333,366.167 188.5,366.5C 190.375,367.409 191.708,368.743 192.5,370.5C 186.416,368.244 182.583,363.911 181,357.5C 180.333,313.5 180.333,269.5 181,225.5C 188.726,209.304 199.059,207.304 212,219.5C 212.791,220.745 213.291,222.078 213.5,223.5 Z"/></g>
<g><path style="opacity:1" fill="#1c282b" d="M 213.5,223.5 C 214.466,225.792 215.133,228.292 215.5,231C 214.828,252.164 214.161,273.331 213.5,294.5C 214.634,315.816 214.8,337.149 214,358.5C 213.439,360.725 212.439,362.725 211,364.5C 208.54,365.958 206.373,367.791 204.5,370C 200.437,371.714 196.437,371.88 192.5,370.5C 191.708,368.743 190.375,367.409 188.5,366.5C 189.333,366.167 190.167,365.833 191,365.5C 193.059,366.618 195.226,367.285 197.5,367.5C 197.5,366.167 197.5,364.833 197.5,363.5C 198.833,363.5 200.167,363.5 201.5,363.5C 201.5,356.833 201.5,350.167 201.5,343.5C 200.167,343.5 198.833,343.5 197.5,343.5C 197.5,335.5 197.5,327.5 197.5,319.5C 198.833,319.5 200.167,319.5 201.5,319.5C 201.5,316.833 201.5,314.167 201.5,311.5C 200.167,311.5 198.833,311.5 197.5,311.5C 197.5,306.167 197.5,300.833 197.5,295.5C 196.167,295.5 194.833,295.5 193.5,295.5C 193.664,298.187 193.497,300.854 193,303.5C 191.977,302.4 191.477,301.067 191.5,299.5C 191.606,288.987 191.606,278.321 191.5,267.5C 193.5,267.5 195.5,267.5 197.5,267.5C 197.5,256.833 197.5,246.167 197.5,235.5C 198.833,235.5 200.167,235.5 201.5,235.5C 201.5,234.167 201.5,232.833 201.5,231.5C 199.5,231.5 197.5,231.5 195.5,231.5C 195.5,229.5 195.5,227.5 195.5,225.5C 197.5,225.5 199.5,225.5 201.5,225.5C 201.351,224.448 201.517,223.448 202,222.5C 204.903,221.931 206.903,220.265 208,217.5C 209.778,219.945 211.111,222.611 212,225.5C 212.278,224.584 212.778,223.918 213.5,223.5 Z"/></g>
<g><path style="opacity:1" fill="#1a2123" d="M 146.5,230.5 C 148.857,230.337 151.19,230.503 153.5,231C 150.833,231.333 148.167,231.667 145.5,232C 158.833,232.667 158.833,233.333 145.5,234C 147.167,234.333 148.833,234.667 150.5,235C 148.633,238.961 147.299,243.128 146.5,247.5C 145.501,258.146 145.168,268.813 145.5,279.5C 144.167,279.5 142.833,279.5 141.5,279.5C 141.5,282.167 141.5,284.833 141.5,287.5C 142.833,287.5 144.167,287.5 145.5,287.5C 145.833,308.844 145.5,330.177 144.5,351.5C 142.781,348.952 141.448,349.285 140.5,352.5C 139.787,350.565 138.787,350.232 137.5,351.5C 135.837,349.507 134.67,347.174 134,344.5C 133.333,310.167 133.333,275.833 134,241.5C 136.507,235.819 140.674,232.152 146.5,230.5 Z"/></g>
<g><path style="opacity:1" fill="#1a2122" d="M 442.5,231.5 C 442.714,233.144 442.38,234.644 441.5,236C 445.278,237.64 445.278,238.807 441.5,239.5C 441.5,244.833 441.5,250.167 441.5,255.5C 438.167,255.5 434.833,255.5 431.5,255.5C 431.652,274.486 430.985,293.32 429.5,312C 429.729,322.553 430.395,333.053 431.5,343.5C 433.5,343.5 435.5,343.5 437.5,343.5C 437.74,346.579 437.407,349.579 436.5,352.5C 438.219,354.352 440.219,355.686 442.5,356.5C 431.328,358.991 424.162,354.658 421,343.5C 420.792,312.324 420.292,281.157 419.5,250C 420.144,234.485 427.811,228.319 442.5,231.5 Z"/></g>
<g><path style="opacity:1" fill="#172224" d="M 442.5,231.5 C 452.85,236.31 456.85,244.476 454.5,256C 453.397,285.503 453.23,315.003 454,344.5C 451.316,349.683 447.482,353.683 442.5,356.5C 440.219,355.686 438.219,354.352 436.5,352.5C 437.407,349.579 437.74,346.579 437.5,343.5C 435.5,343.5 433.5,343.5 431.5,343.5C 430.395,333.053 429.729,322.553 429.5,312C 430.985,293.32 431.652,274.486 431.5,255.5C 434.833,255.5 438.167,255.5 441.5,255.5C 441.5,250.167 441.5,244.833 441.5,239.5C 445.278,238.807 445.278,237.64 441.5,236C 442.38,234.644 442.714,233.144 442.5,231.5 Z"/></g>
<g><path style="opacity:1" fill="#192324" d="M 106.5,271.5 C 107.75,271.577 108.583,272.244 109,273.5C 110.356,272.62 111.856,272.286 113.5,272.5C 113.214,274.277 112.547,275.944 111.5,277.5C 113.352,284.688 114.018,292.021 113.5,299.5C 114.833,299.5 116.167,299.5 117.5,299.5C 116.94,306.121 117.607,312.455 119.5,318.5C 118.942,319.79 117.942,320.623 116.5,321C 107.536,323.437 101.702,320.27 99,311.5C 97.5093,301.879 97.1759,292.212 98,282.5C 98.839,277.175 101.672,273.508 106.5,271.5 Z"/></g>
<g><path style="opacity:1" fill="#142023" d="M 470.5,269.5 C 482.169,268.672 489.003,274.005 491,285.5C 491.664,292.541 491.331,299.541 490,306.5C 486.119,318.859 478.285,322.692 466.5,318C 465.107,316.829 464.273,315.329 464,313.5C 464.638,302.277 464.471,291.11 463.5,280C 463.316,274.705 465.65,271.205 470.5,269.5 Z"/></g>
<g><path style="opacity:1" fill="#182326" d="M 265.5,276.5 C 295.517,276.167 325.517,276.667 355.5,278C 368.328,286.839 368.661,296.172 356.5,306C 354.167,306.333 351.833,306.667 349.5,307C 310.833,307.667 272.167,307.667 233.5,307C 225.129,303.091 221.963,296.591 224,287.5C 226.128,284.37 228.628,281.537 231.5,279C 242.911,277.877 254.245,277.043 265.5,276.5 Z"/></g>
<g><path style="opacity:1" fill="#1c2a2b" d="M 106.5,271.5 C 109.976,270.357 113.642,270.19 117.5,271C 120,272.167 121.833,274 123,276.5C 123.667,289.167 123.667,301.833 123,314.5C 122.34,316.324 121.173,317.657 119.5,318.5C 117.607,312.455 116.94,306.121 117.5,299.5C 116.167,299.5 114.833,299.5 113.5,299.5C 114.018,292.021 113.352,284.688 111.5,277.5C 112.547,275.944 113.214,274.277 113.5,272.5C 111.856,272.286 110.356,272.62 109,273.5C 108.583,272.244 107.75,271.577 106.5,271.5 Z"/></g>
<g><path style="opacity:1" fill="#1a272a" d="M 146.5,230.5 C 155.752,228.541 162.585,231.874 167,240.5C 167.667,275.833 167.667,311.167 167,346.5C 161.997,356.419 154.164,359.919 143.5,357C 141.004,355.669 139.004,353.836 137.5,351.5C 138.787,350.232 139.787,350.565 140.5,352.5C 141.448,349.285 142.781,348.952 144.5,351.5C 145.5,330.177 145.833,308.844 145.5,287.5C 144.167,287.5 142.833,287.5 141.5,287.5C 141.5,284.833 141.5,282.167 141.5,279.5C 142.833,279.5 144.167,279.5 145.5,279.5C 145.168,268.813 145.501,258.146 146.5,247.5C 147.299,243.128 148.633,238.961 150.5,235C 148.833,234.667 147.167,234.333 145.5,234C 158.833,233.333 158.833,232.667 145.5,232C 148.167,231.667 150.833,231.333 153.5,231C 151.19,230.503 148.857,230.337 146.5,230.5 Z"/></g>
<g><path style="opacity:1" fill="#172326" d="M 278.5,322.5 C 288.5,322.5 298.5,322.5 308.5,322.5C 308.295,336.015 308.628,349.515 309.5,363C 310.169,371.319 307.503,378.319 301.5,384C 289.572,389.619 281.739,386.119 278,373.5C 277.907,356.503 278.074,339.503 278.5,322.5 Z"/></g>
<g><path style="opacity:1" fill="#1a2326" d="M 303.5,416.5 C 302.737,417.268 301.737,417.768 300.5,418C 301.406,419.699 301.739,421.533 301.5,423.5C 300.167,423.5 298.833,423.5 297.5,423.5C 297.5,426.5 297.5,429.5 297.5,432.5C 302.979,432.129 308.312,431.129 313.5,429.5C 313.5,430.833 313.5,432.167 313.5,433.5C 315.483,433.157 316.817,433.824 317.5,435.5C 271.984,440.267 230.651,429.433 193.5,403C 189.677,399.01 186.344,394.676 183.5,390C 183.887,387.739 185.221,386.406 187.5,386C 195.167,385.333 202.833,385.333 210.5,386C 222.57,397.873 236.903,405.873 253.5,410C 269.829,414.694 286.496,416.861 303.5,416.5 Z"/></g>
<g><path style="opacity:1" fill="#182426" d="M 317.5,435.5 C 316.817,433.824 315.483,433.157 313.5,433.5C 313.5,432.167 313.5,430.833 313.5,429.5C 308.312,431.129 302.979,432.129 297.5,432.5C 297.5,429.5 297.5,426.5 297.5,423.5C 298.833,423.5 300.167,423.5 301.5,423.5C 301.739,421.533 301.406,419.699 300.5,418C 301.737,417.768 302.737,417.268 303.5,416.5C 332.082,414.697 357.415,404.864 379.5,387C 388.209,384.003 396.209,385.503 403.5,391.5C 404.38,394.125 403.713,396.458 401.5,398.5C 394.641,403.86 387.641,409.026 380.5,414C 360.617,424.461 339.617,431.628 317.5,435.5 Z"/></g>
<g><path style="opacity:1" fill="#263435" d="M 454.5,477.5 C 463.833,476.167 473.167,476.167 482.5,477.5C 473.334,477.625 464.001,477.625 454.5,477.5 Z"/></g>
<g><path style="opacity:1" fill="#0e181e" d="M 198.5,476.5 C 204.842,476.334 211.175,476.5 217.5,477C 227.777,481.837 230.277,489.337 225,499.5C 221.23,502.885 216.897,505.218 212,506.5C 210.333,505.167 208.667,505.167 207,506.5C 206.631,510.863 206.131,515.196 205.5,519.5C 201.97,520.011 198.804,519.344 196,517.5C 195.333,504.833 195.333,492.167 196,479.5C 196.698,478.309 197.531,477.309 198.5,476.5 Z M 205.5,485.5 C 209.839,484.846 213.673,485.846 217,488.5C 218.615,493.09 217.115,495.923 212.5,497C 210.5,497.667 208.5,497.667 206.5,497C 205.54,493.27 205.207,489.437 205.5,485.5 Z"/></g>
<g><path style="opacity:1" fill="#131c22" d="M 364.5,502.5 C 362.641,501.406 360.641,500.573 358.5,500C 359.167,499.333 359.833,498.667 360.5,498C 359.748,497.329 359.414,496.496 359.5,495.5C 359.721,492.721 359.388,490.054 358.5,487.5C 357.886,485.277 356.552,483.611 354.5,482.5C 351.63,483.122 348.796,483.789 346,484.5C 345.51,483.207 345.343,481.873 345.5,480.5C 344.5,480.5 343.5,480.5 342.5,480.5C 342.657,481.873 342.49,483.207 342,484.5C 341.667,484.167 341.333,483.833 341,483.5C 340.409,493.674 339.576,503.674 338.5,513.5C 337.852,502.836 337.685,492.169 338,481.5C 338.11,479.152 339.277,477.652 341.5,477C 347.694,476.273 353.86,476.439 360,477.5C 369.789,482.199 372.456,489.533 368,499.5C 366.961,500.71 365.794,501.71 364.5,502.5 Z M 358.5,487.5 C 359.388,490.054 359.721,492.721 359.5,495.5C 349.383,500.388 346.05,497.388 349.5,486.5C 350.293,486.069 351.127,485.735 352,485.5C 354.154,486.274 356.321,486.941 358.5,487.5 Z"/></g>
<g><path style="opacity:1" fill="#10191c" d="M 174.5,481.5 C 174.079,483.91 172.746,485.743 170.5,487C 168.925,486.621 167.425,486.788 166,487.5C 165.316,488.784 165.483,489.951 166.5,491C 165.324,492.674 163.99,494.174 162.5,495.5C 162.846,496.696 163.346,496.696 164,495.5C 164.464,496.094 164.631,496.761 164.5,497.5C 164.232,499.099 164.566,500.432 165.5,501.5C 164.766,502.708 164.433,504.041 164.5,505.5C 163.325,505.281 162.325,505.614 161.5,506.5C 162.729,507.281 164.062,507.781 165.5,508C 163.509,508.374 161.842,509.207 160.5,510.5C 160.063,513.859 159.063,517.026 157.5,520C 155.155,520.17 152.821,519.837 150.5,519C 149.903,517.938 149.57,516.772 149.5,515.5C 152.97,503.59 157.137,491.923 162,480.5C 166.812,474.925 170.979,475.259 174.5,481.5 Z"/></g>
<g><path style="opacity:1" fill="#0e1a1e" d="M 454.5,477.5 C 464.001,477.625 473.334,477.625 482.5,477.5C 483.117,477.611 483.617,477.944 484,478.5C 484.667,480.5 484.667,482.5 484,484.5C 481.204,485.211 478.37,485.878 475.5,486.5C 475.167,487.5 474.833,488.5 474.5,489.5C 473.886,499.195 473.22,508.861 472.5,518.5C 469.679,519.971 467.179,519.637 465,517.5C 464.5,507.172 464.334,496.839 464.5,486.5C 460.486,486.666 456.486,486.499 452.5,486C 451.409,483.936 451.242,481.769 452,479.5C 452.417,478.244 453.25,477.577 454.5,477.5 Z"/></g>
<g><path style="opacity:1" fill="#0a131a" d="M 303.5,500.5 C 304.027,504.286 305.36,507.786 307.5,511C 306.852,512.44 306.519,513.94 306.5,515.5C 310.5,516.167 310.5,516.833 306.5,517.5C 305.5,517.5 304.5,517.5 303.5,517.5C 302.027,516.26 300.36,515.26 298.5,514.5C 297.833,512.5 297.167,510.5 296.5,508.5C 295.735,507.388 294.735,506.721 293.5,506.5C 293.5,505.833 293.5,505.167 293.5,504.5C 291.016,501.702 289.016,502.035 287.5,505.5C 287.647,509.944 285.647,512.778 281.5,514C 281.116,514.951 280.783,515.784 280.5,516.5C 276.76,513.401 275.593,509.401 277,504.5C 279.921,502.623 282.754,500.623 285.5,498.5C 277.909,485.341 281.576,477.008 296.5,473.5C 306.024,474.181 310.19,479.181 309,488.5C 306.695,492.304 304.195,495.97 301.5,499.5C 301.957,500.298 302.624,500.631 303.5,500.5 Z M 292.5,483.5 C 298.882,482.192 300.549,484.192 297.5,489.5C 296.167,490.833 294.833,490.833 293.5,489.5C 292.534,487.604 292.201,485.604 292.5,483.5 Z M 293.5,504.5 C 293.5,505.167 293.5,505.833 293.5,506.5C 298.204,513.113 296.87,514.78 289.5,511.5C 288.177,507.793 289.51,505.46 293.5,504.5 Z"/></g>
<g><path style="opacity:1" fill="#121f22" d="M 358.5,487.5 C 356.321,486.941 354.154,486.274 352,485.5C 351.127,485.735 350.293,486.069 349.5,486.5C 346.05,497.388 349.383,500.388 359.5,495.5C 359.414,496.496 359.748,497.329 360.5,498C 359.833,498.667 359.167,499.333 358.5,500C 360.641,500.573 362.641,501.406 364.5,502.5C 359.61,504.6 354.443,505.934 349,506.5C 348.803,511.086 348.303,515.586 347.5,520C 341.852,521.196 338.852,519.029 338.5,513.5C 339.576,503.674 340.409,493.674 341,483.5C 341.333,483.833 341.667,484.167 342,484.5C 342.49,483.207 342.657,481.873 342.5,480.5C 343.5,480.5 344.5,480.5 345.5,480.5C 345.343,481.873 345.51,483.207 346,484.5C 348.796,483.789 351.63,483.122 354.5,482.5C 356.552,483.611 357.886,485.277 358.5,487.5 Z"/></g>
<g><path style="opacity:1" fill="#111c20" d="M 495.5,476.5 C 504.418,476.183 513.251,476.516 522,477.5C 524.358,480.605 523.858,483.105 520.5,485C 514.175,485.5 507.842,485.666 501.5,485.5C 501.5,488.167 501.5,490.833 501.5,493.5C 507.176,493.334 512.843,493.501 518.5,494C 521.054,496.269 521.054,498.602 518.5,501C 513.455,501.589 508.455,502.422 503.5,503.5C 502.167,505.5 502.167,507.5 503.5,509.5C 509.884,510.127 516.217,510.96 522.5,512C 523.935,514.267 523.602,516.267 521.5,518C 512.987,520.241 504.32,520.908 495.5,520C 494.299,519.097 493.465,517.931 493,516.5C 492.333,504.5 492.333,492.5 493,480.5C 493.662,479.016 494.496,477.683 495.5,476.5 Z"/></g>
<g><path style="opacity:1" fill="#111c23" d="M 174.5,481.5 C 179.11,491.552 183.277,501.886 187,512.5C 188.188,518.676 185.688,520.842 179.5,519C 177.874,515.577 175.874,512.41 173.5,509.5C 169.235,510.439 164.902,510.772 160.5,510.5C 161.842,509.207 163.509,508.374 165.5,508C 164.062,507.781 162.729,507.281 161.5,506.5C 162.325,505.614 163.325,505.281 164.5,505.5C 164.433,504.041 164.766,502.708 165.5,501.5C 167.5,501.5 169.5,501.5 171.5,501.5C 170.907,498.055 169.907,494.721 168.5,491.5C 166.648,493.219 165.314,495.219 164.5,497.5C 164.631,496.761 164.464,496.094 164,495.5C 163.346,496.696 162.846,496.696 162.5,495.5C 163.99,494.174 165.324,492.674 166.5,491C 165.483,489.951 165.316,488.784 166,487.5C 167.425,486.788 168.925,486.621 170.5,487C 172.746,485.743 174.079,483.91 174.5,481.5 Z"/></g>
<g><path style="opacity:1" fill="#10181e" d="M 74.5,476.5 C 79.9302,476.161 85.2636,476.661 90.5,478C 96.1865,482.447 95.5198,485.614 88.5,487.5C 85.3321,485.734 81.9988,484.901 78.5,485C 75.5178,487.191 75.1845,489.524 77.5,492C 84.6249,493.972 90.4583,497.805 95,503.5C 96.3408,512.507 92.5075,518.007 83.5,520C 76.5096,521.528 70.3429,520.028 65,515.5C 62.9998,510.54 64.8332,507.873 70.5,507.5C 73.2325,508.363 75.8992,509.529 78.5,511C 83.6667,512.5 85.5,510.667 84,505.5C 79.2675,503.143 74.4342,500.977 69.5,499C 64.0231,494.195 63.1897,488.695 67,482.5C 69.1141,479.879 71.6141,477.879 74.5,476.5 Z"/></g>
<g><path style="opacity:1" fill="#082321" d="M 306.5,517.5 C 310.5,516.833 310.5,516.167 306.5,515.5C 306.519,513.94 306.852,512.44 307.5,511C 305.36,507.786 304.027,504.286 303.5,500.5C 306.493,499.865 309.493,499.699 312.5,500C 315.068,501.127 316.402,503.127 316.5,506C 315.046,510.402 313.213,514.568 311,518.5C 309.164,520.912 307.664,520.578 306.5,517.5 Z"/></g>
<g><path style="opacity:1" fill="#0d1619" d="M 379.5,477.5 C 382.448,477.223 385.281,477.556 388,478.5C 388.5,489.161 388.667,499.828 388.5,510.5C 394.176,510.334 399.843,510.501 405.5,511C 406.308,511.308 406.975,511.808 407.5,512.5C 406.894,514.709 406.227,516.876 405.5,519C 396.921,519.816 388.421,519.649 380,518.5C 378.225,504.836 378.059,491.17 379.5,477.5 Z"/></g>
<g><path style="opacity:1" fill="#101f26" d="M 428.5,476.5 C 431.365,476.055 433.865,476.722 436,478.5C 441.816,490.283 446.65,502.45 450.5,515C 450.415,516.107 450.081,517.107 449.5,518C 446.998,519.432 444.498,519.598 442,518.5C 440.963,515.595 439.796,512.761 438.5,510C 433.43,509.592 428.43,510.092 423.5,511.5C 422.607,514.084 422.274,516.751 422.5,519.5C 418.456,520.042 414.789,519.209 411.5,517C 415.391,502.722 421.058,489.222 428.5,476.5 Z M 430.5,491.5 C 433.171,494.175 434.838,497.508 435.5,501.5C 433.167,501.5 430.833,501.5 428.5,501.5C 428.311,497.963 428.977,494.63 430.5,491.5 Z"/></g>
<g><path style="opacity:1" fill="#141d21" d="M 106.5,477.5 C 109.247,477.187 111.914,477.52 114.5,478.5C 115.448,483.435 115.781,488.435 115.5,493.5C 120.5,493.5 125.5,493.5 130.5,493.5C 130.334,488.489 130.501,483.489 131,478.5C 133.737,477.39 136.571,477.223 139.5,478C 140.655,491.091 140.822,504.258 140,517.5C 137.482,519.464 134.816,520.13 132,519.5C 131.627,513.811 131.127,508.145 130.5,502.5C 124.996,502.068 119.663,502.735 114.5,504.5C 115.345,509.141 115.179,513.808 114,518.5C 111.465,520.799 108.798,520.799 106,518.5C 105.141,515.052 104.641,511.552 104.5,508C 105.043,497.766 105.71,487.6 106.5,477.5 Z"/></g>
<g><path style="opacity:1" fill="#0d1a1f" d="M 293.5,504.5 C 289.51,505.46 288.177,507.793 289.5,511.5C 296.87,514.78 298.204,513.113 293.5,506.5C 294.735,506.721 295.735,507.388 296.5,508.5C 297.167,510.5 297.833,512.5 298.5,514.5C 300.36,515.26 302.027,516.26 303.5,517.5C 295.55,524.344 287.883,524.011 280.5,516.5C 280.783,515.784 281.116,514.951 281.5,514C 285.647,512.778 287.647,509.944 287.5,505.5C 289.016,502.035 291.016,501.702 293.5,504.5 Z"/></g>
<g><path style="opacity:1" fill="#111d20" d="M 238.5,476.5 C 247.751,476.182 256.917,476.515 266,477.5C 266.758,479.769 266.591,481.936 265.5,484C 258.998,485.061 252.498,485.894 246,486.5C 245.231,489.099 245.398,491.599 246.5,494C 251.5,494.333 256.5,494.667 261.5,495C 262.423,497.041 262.756,499.208 262.5,501.5C 257.203,502.275 251.87,502.608 246.5,502.5C 246.232,505.119 246.565,507.619 247.5,510C 253.167,510.333 258.833,510.667 264.5,511C 268.088,514.625 267.588,517.792 263,520.5C 254.233,520.805 245.4,520.472 236.5,519.5C 236.76,507.644 236.426,495.811 235.5,484C 235.445,480.982 236.445,478.482 238.5,476.5 Z"/></g>
</svg>
